<?xml version="1.0" encoding="iso-8859-1"?>
<!-- Generator: Adobe Illustrator 19.0.0, SVG Export Plug-In . SVG Version: 6.00 Build 0)  -->
<svg version="1.1" id="Capa_1" xmlns="http://www.w3.org/2000/svg" xmlns:xlink="http://www.w3.org/1999/xlink" x="0px" y="0px"
	 viewBox="0 0 512.001 512.001" style="enable-background:new 0 0 512.001 512.001;" xml:space="preserve">
<path style="fill:#A5C8CD;" d="M249.712,252.044h-31.964c-3.39,0-6.138-2.748-6.138-6.138v-11.548h44.241v11.548
	C255.85,249.296,253.102,252.044,249.712,252.044z"/>
<path style="fill:#C8E6EB;" d="M185.165,222.434c-1.747,0-3.219,0.654-3.419,1.522c-0.103,0.446-0.161,0.896-0.161,1.352
	c0,10.439,23.349,18.904,52.145,18.904c28.798,0,52.145-8.465,52.145-18.904c0-0.455-0.057-0.904-0.157-1.348
	c-0.197-0.871-1.667-1.526-3.419-1.526H185.165z"/>
<path style="fill:#69280F;" d="M257.807,427.213c-6.545,0-11.852-5.306-11.852-11.852V275.689c0-6.545,5.307-11.852,11.852-11.852
	c6.545,0,11.852,5.306,11.852,11.852v139.672C269.658,421.907,264.352,427.213,257.807,427.213z"/>
<path style="fill:#501E0F;" d="M285.301,429.282H230.31c-6.545,0-11.852-5.306-11.852-11.852c0-6.545,5.307-11.852,11.852-11.852
	h54.992c6.545,0,11.852,5.306,11.852,11.852C297.154,423.976,291.847,429.282,285.301,429.282z"/>
<path style="fill:#965028;" d="M359.776,269.482c0,9.631-7.808,17.438-17.438,17.438H173.275c-9.631,0-17.438-7.808-17.438-17.438
	l0,0c0-9.631,7.808-17.438,17.438-17.438h169.062C351.968,252.044,359.776,259.85,359.776,269.482L359.776,269.482z"/>
<path style="fill:#414B82;" d="M470.72,316.562c16.199,0,29.337-13.15,29.323-29.352l-0.09-103.374
	c-0.012-13.528-11.56-24.195-25.055-23.122l-39.702,3.155c-12.654,1.005-22.155,11.989-21.327,24.657l6.045,92.491h-32.793
	c-8.661,0-16.062,6.241-17.523,14.777L350.182,408.5c-1.657,9.677,4.845,18.866,14.523,20.523
	c9.636,1.65,18.859-4.807,20.523-14.522l16.886-97.941C408.468,316.562,443.864,316.562,470.72,316.562z"/>
<path style="fill:#64AFFF;" d="M500.053,287.213l-0.09-103.347c-0.012-13.526-11.558-24.195-25.055-23.122l-39.702,3.155
	c-12.654,1.005-22.155,11.989-21.327,24.657l6.044,92.459L500.053,287.213z"/>
<circle style="fill:#FFB69E;" cx="446.699" cy="117.081" r="34.362"/>
<path style="fill:#69280F;" d="M499.839,316.552H412.12c-6.545,0-11.852,5.307-11.852,11.852v89.026
	c0,6.546,5.307,11.852,11.852,11.852c6.545,0,11.852-5.306,11.852-11.852v-77.174h64.324v77.174c0,6.546,5.307,11.852,11.852,11.852
	S512,423.976,512,417.429v-88.964C512,321.903,506.676,316.552,499.839,316.552z"/>
<path style="fill:#501E0F;" d="M400.268,340.233v77.197c0,6.546,5.307,11.852,11.852,11.852c6.545,0,11.852-5.306,11.852-11.852
	v-77.174h64.324v77.174c0,6.546,5.307,11.852,11.852,11.852s11.852-5.306,11.852-11.852v-77.197L400.268,340.233L400.268,340.233z"
	/>
<path style="fill:#FFB69E;" d="M429.937,257.967h-62.2c-8.182,0-14.815-6.633-14.815-14.815c0-8.182,6.633-14.815,14.815-14.815
	h53.1l25.569-50.458c3.698-7.298,12.611-10.219,19.911-6.518c7.298,3.698,10.217,12.613,6.518,19.912l-29.683,58.576
	C440.63,254.829,435.52,257.967,429.937,257.967z"/>
<path style="fill:#78BEFF;" d="M458.492,219.576l14.343-28.304c3.698-7.299,0.78-16.213-6.518-19.911
	c-7.3-3.699-16.213-0.779-19.911,6.518l-14.6,28.812L458.492,219.576z"/>
<path style="fill:#414B82;" d="M175.561,405.889l-37.472-112.721c-2.416-7.266-9.212-12.169-16.87-12.169h-13.537l22.645-79.042
	c3.517-12.278-3.584-25.084-15.863-28.602L76.404,162.45c-11.011-3.154-23.467,2.079-28.434,14.502
	c-0.237,0.592,1.019-5.247-21.714,107.13c-3.392,16.785,9.439,32.47,26.563,32.47c19.604,0,35.895,0,55.576,0l33.426,100.557
	c3.097,9.313,13.156,14.359,22.479,11.261C173.618,425.271,178.661,415.207,175.561,405.889z"/>
<path style="fill:#C8E6EB;" d="M197.601,191.829l-44.302-25.96c-3.696-2.167-4.938-6.919-2.771-10.617
	c2.166-3.697,6.92-4.938,10.617-2.772l44.302,25.96c3.696,2.167,4.938,6.919,2.771,10.617
	C206.062,192.735,201.316,194.006,197.601,191.829z"/>
<path style="fill:#FF4619;" d="M114.465,173.356l-38.061-10.905c-11.011-3.154-23.467,2.079-28.434,14.502
	c-0.237,0.592,1.019-5.247-21.714,107.13L107.683,281l22.645-79.042C133.846,189.679,126.743,176.874,114.465,173.356z"/>
<circle style="fill:#BA6746;" cx="113.91" cy="119.341" r="34.362"/>
<path style="fill:#69280F;" d="M99.57,316.552H11.852C5.307,316.552,0,321.858,0,328.404v89.026c0,6.546,5.307,11.852,11.852,11.852
	s11.852-5.306,11.852-11.852v-77.174h64.324v77.174c0,6.546,5.307,11.852,11.852,11.852s11.852-5.306,11.852-11.852v-88.964
	C111.732,321.903,106.408,316.552,99.57,316.552z"/>
<path style="fill:#501E0F;" d="M0,340.233v77.197c0,6.546,5.307,11.852,11.852,11.852s11.852-5.306,11.852-11.852v-77.174h64.324
	v77.174c0,6.546,5.307,11.852,11.852,11.852s11.852-5.306,11.852-11.852v-77.197L0,340.233L0,340.233z"/>
<path style="fill:#BA6746;" d="M142.054,230.172L73.22,198.364c-7.428-3.432-10.666-12.235-7.235-19.663
	c3.432-7.428,12.235-10.667,19.664-7.235l61.624,28.476l46.221-28.428c6.969-4.288,16.095-2.112,20.381,4.858
	c4.287,6.969,2.112,16.094-4.858,20.38l-52.987,32.59C151.903,231.882,146.66,232.3,142.054,230.172z"/>
<path style="fill:#FF7350;" d="M114.86,184.965L85.65,171.467c-7.429-3.431-16.233-0.193-19.664,7.235
	c-3.432,7.428-0.193,16.231,7.235,19.663l31.448,14.532L114.86,184.965z"/>
<g>
</g>
<g>
</g>
<g>
</g>
<g>
</g>
<g>
</g>
<g>
</g>
<g>
</g>
<g>
</g>
<g>
</g>
<g>
</g>
<g>
</g>
<g>
</g>
<g>
</g>
<g>
</g>
<g>
</g>
</svg>
