<svg height="512pt" viewBox="-17 0 512 512.10122" width="512pt" xmlns="http://www.w3.org/2000/svg"><path d="m469.382812 298.769531c0 113.066407-103.167968 204.796875-230.398437 204.796875-4.265625 0-8.535156-.082031-12.800781-.339844-121.257813-5.886718-217.597656-95.230468-217.597656-204.457031 0-21.394531 3.757812-42.625 11.089843-62.722656 3.539063-9.609375 5.75-19.65625 6.570313-29.867187 7.863281-106.511719 93.324218-190.769532 199.9375-197.117188 4.265625-.34375 8.535156-.429688 12.800781-.429688 111.660156.003907 204.429687 86.113282 212.734375 197.464844.816406 10.179688 3.027344 20.199219 6.570312 29.78125 7.332032 20.15625 11.085938 41.441406 11.09375 62.890625zm0 0" fill="#ffb301"/><path d="m443.785156 298.769531c0 109.226563-96.34375 198.570313-217.601562 204.457031-121.257813-5.886718-217.597656-95.230468-217.597656-204.457031 0-21.394531 3.757812-42.625 11.089843-62.722656 3.539063-9.609375 5.75-19.65625 6.570313-29.867187 7.863281-106.511719 93.324218-190.769532 199.9375-197.117188 106.585937 6.339844 192.039062 90.554688 199.9375 197.035156.8125 10.179688 3.023437 20.199219 6.570312 29.78125 7.328125 20.15625 11.082032 41.441406 11.09375 62.890625zm0 0" fill="#fec108"/><path d="m236.699219 137.066406c-12.945313-41.757812-54.539063-65.972656-92.898438-54.078125-38.363281 11.890625-58.964843 55.386719-46.019531 97.144531 12.945312 41.761719 54.539062 65.972657 92.898438 54.082032 38.363281-11.894532 58.96875-55.386719 46.019531-97.148438zm0 0" fill="#fff"/><path d="m377.992188 186.382812c-12.359376 34.386719-47.339844 55.203126-83.457032 49.664063-4.445312-.863281-8.792968-2.175781-12.96875-3.925781-22.277344-9.597656-38.265625-29.71875-42.582031-53.589844v-32.425781c1.0625-5.238281 2.574219-10.378907 4.523437-15.359375 9.597657-25.289063 31.394532-43.964844 57.855469-49.578125 12.964844-2.484375 26.371094-1.117188 38.570313 3.925781 37.121094 15.359375 54.1875 60.671875 38.058594 101.289062zm0 0" fill="#cfd8dc"/><path d="m352.390625 186.382812c-9.566406 25.328126-31.367187 44.046876-57.855469 49.664063-4.445312-.863281-8.792968-2.175781-12.96875-3.925781-22.277344-9.597656-38.265625-29.71875-42.582031-53.589844v-32.425781c1.0625-5.238281 2.574219-10.378907 4.523437-15.359375 9.597657-25.289063 31.394532-43.964844 57.855469-49.578125 4.445313.863281 8.792969 2.179687 12.96875 3.925781 37.121094 15.359375 54.1875 60.671875 38.058594 101.289062zm0 0" fill="#fff"/><path d="m204.851562 174.941406c0 16.496094-13.371093 29.867188-29.867187 29.867188s-29.867187-13.371094-29.867187-29.867188 13.371093-29.867187 29.867187-29.867187 29.867187 13.371093 29.867187 29.867187zm0 0" fill="#4caf50"/><path d="m324.316406 175.035156c0 16.496094-13.371094 29.867188-29.867187 29.867188-16.492188 0-29.863281-13.371094-29.863281-29.867188s13.371093-29.867187 29.863281-29.867187c16.496093 0 29.867187 13.371093 29.867187 29.867187zm0 0" fill="#4caf50"/><path d="m432.945312 292.792969c-7.933593 49.75-43.007812 176.640625-193.960937 176.640625-3.984375 0-7.90625-.085938-11.777344-.253906-141.054687-6.402344-174.421875-127.914063-182.1875-176.386719-.777343-4.910157.636719-9.917969 3.871094-13.695313 3.238281-3.777344 7.96875-5.945312 12.941406-5.929687h354.304688c4.972656-.015625 9.703125 2.152343 12.941406 5.929687 3.234375 3.777344 4.648437 8.785156 3.867187 13.695313zm0 0" fill="#cfd8dc"/><path d="m409.394531 292.792969c-7.765625 48.472656-41.128906 169.984375-182.1875 176.386719-141.054687-6.402344-174.421875-127.914063-182.1875-176.386719-.777343-4.910157.636719-9.917969 3.871094-13.695313 3.238281-3.777344 7.96875-5.945312 12.941406-5.929687h330.753907c4.972656-.015625 9.703124 2.152343 12.9375 5.929687 3.238281 3.777344 4.652343 8.785156 3.871093 13.695313zm0 0" fill="#fff"/><path d="m238.984375 512.101562c131.746094 0 238.933594-95.703124 238.933594-213.332031.007812-22.441406-3.921875-44.707031-11.613281-65.785156-3.285157-8.855469-5.324219-18.121094-6.058594-27.535156-8.597656-115.859375-105.117188-205.4687502-221.292969-205.449219s-212.667969 89.65625-221.230469 205.515625c-.742187 9.417969-2.785156 18.6875-6.066406 27.546875-7.691406 21.050781-11.6210938 43.292969-11.6054688 65.707031 0 117.628907 107.1874998 213.332031 238.9335938 213.332031zm-211.292969-273.160156c3.824219-10.347656 6.195313-21.171875 7.046875-32.171875 7.871094-106.976562 96.945313-189.753906 204.210938-189.773437 107.261719-.023438 196.371093 82.726562 204.28125 189.695312.847656 10.988282 3.214843 21.804688 7.039062 32.136719 7.011719 19.207031 10.589844 39.496094 10.582031 59.941406 0 108.21875-99.523437 196.265625-221.867187 196.265625s-221.867187-88.046875-221.867187-196.265625c-.007813-20.410156 3.570312-40.660156 10.574218-59.828125zm0 0"/><path d="m139.910156 239.425781c9.753906 4.167969 20.246094 6.328125 30.851563 6.359375 9.929687.003906 19.761719-1.957031 28.933593-5.761718 17-7.160157 30.917969-20.101563 39.289063-36.539063 8.410156 16.390625 22.300781 29.3125 39.253906 36.523437 9.199219 3.808594 19.058594 5.761719 29.011719 5.75 10.585938-.027343 21.054688-2.183593 30.789062-6.339843 21.945313-9.609375 39.167969-27.554688 47.863282-49.875 17.800781-44.828125-1.355469-95.214844-42.71875-112.324219-19.175782-7.867188-40.714844-7.65625-59.730469.585938-19.351563 8.421874-35.101563 23.410156-44.46875 42.316406-9.332031-18.910156-25.050781-33.917969-44.375-42.367188-19.035156-8.257812-40.601563-8.476562-59.800781-.605468-41.367188 17.109374-60.527344 67.523437-42.71875 112.382812 8.679687 22.324219 25.886718 40.277344 47.820312 49.894531zm150.1875-145.917969c14.816406-6.453124 31.609375-6.648437 46.566406-.539062 32.785157 13.570312 47.789063 54.050781 33.375 90.257812-6.992187 18.09375-20.902343 32.652344-38.65625 40.464844-14.808593 6.441406-31.589843 6.636719-46.539062.539063-19.203125-8.382813-33.082031-25.640625-37.148438-46.191407 1.808594-10.414062 1.808594-21.066406 0-31.480468.902344-4.320313 2.167969-8.554688 3.78125-12.664063 7.003907-18.050781 20.894532-32.578125 38.613282-40.378906zm-148.785156-.5625c7.113281-2.945312 14.734375-4.453124 22.433594-4.449218 8.320312.027344 16.550781 1.726562 24.199218 4.992187 17.734376 7.816407 31.628907 22.367188 38.613282 40.441407 14.398437 36.230468-.570313 76.75-33.363282 90.316406-14.980468 6.117187-31.796874 5.917968-46.628906-.546875-17.734375-7.808594-31.632812-22.359375-38.621094-40.4375-14.402343-36.226563.574219-76.742188 33.359376-90.308594zm0 0"/><path d="m174.984375 204.808594c16.496094 0 29.867187-13.371094 29.867187-29.867188s-13.371093-29.867187-29.867187-29.867187-29.867187 13.371093-29.867187 29.867187c0 7.921875 3.148437 15.515625 8.746093 21.117188 5.601563 5.601562 13.199219 8.75 21.121094 8.75zm0-42.667969c7.070313 0 12.800781 5.730469 12.800781 12.800781 0 7.070313-5.730468 12.800782-12.800781 12.800782s-12.800781-5.730469-12.800781-12.800782c0-7.070312 5.730468-12.800781 12.800781-12.800781zm0 0"/><path d="m294.449219 204.902344c16.496093 0 29.867187-13.371094 29.867187-29.867188s-13.371094-29.867187-29.867187-29.867187c-16.492188 0-29.863281 13.371093-29.863281 29.867187s13.371093 29.867188 29.863281 29.867188zm0-42.667969c7.070312 0 12.800781 5.730469 12.800781 12.800781 0 7.070313-5.730469 12.800782-12.800781 12.800782-7.066407 0-12.796875-5.730469-12.796875-12.800782 0-7.070312 5.730468-12.800781 12.796875-12.800781zm0 0"/><path d="m238.984375 477.96875c67.882813 0 120.847656-24.585938 157.441406-73.0625 23.515625-32.855469 38.933594-70.804688 44.984375-110.753906 1.164063-7.390625-.972656-14.917969-5.839844-20.597656-4.867187-5.679688-11.980468-8.9375-19.460937-8.921876h-354.25c-7.523437-.007812-14.671875 3.289063-19.542969 9.019532-4.828125 5.65625-6.933594 13.140625-5.761718 20.480468 6.054687 39.953126 21.46875 77.90625 44.988281 110.765626 36.59375 48.484374 89.558593 73.070312 157.441406 73.070312zm-183.671875-193.246094c1.628906-1.925781 4.023438-3.03125 6.546875-3.019531h354.25c2.523437-.011719 4.917969 1.09375 6.546875 3.019531 1.605469 1.847656 2.300781 4.316406 1.902344 6.730469-8.148438 50.945313-42.539063 169.449219-185.574219 169.449219s-177.425781-118.503906-185.574219-169.457032c-.398437-2.410156.300782-4.875 1.902344-6.722656zm0 0"/><path d="m196.316406 367.035156h76.800782v25.597656c0 4.714844 3.820312 8.535157 8.535156 8.535157 4.710937 0 8.53125-3.820313 8.53125-8.535157v-25.597656h34.132812v8.53125c0 4.714844 3.820313 8.535156 8.535156 8.535156 4.710938 0 8.53125-3.820312 8.53125-8.535156v-8.53125h25.601563c4.710937 0 8.53125-3.820312 8.53125-8.535156 0-4.710938-3.820313-8.53125-8.53125-8.53125h-25.601563v-8.535156c0-4.710938-3.820312-8.53125-8.53125-8.53125-4.714843 0-8.535156 3.820312-8.535156 8.53125v8.535156h-34.132812v-25.601562c0-4.710938-3.820313-8.53125-8.53125-8.53125-4.714844 0-8.535156 3.820312-8.535156 8.53125v25.601562h-76.800782c-4.710937 0-8.53125 3.820312-8.53125 8.53125 0 4.714844 3.820313 8.535156 8.53125 8.535156zm0 0"/></svg>