<svg version="1.1" viewBox="0.0 0.0 960.0 720.0" fill="none" stroke="none" stroke-linecap="square" stroke-miterlimit="10" xmlns:xlink="http://www.w3.org/1999/xlink" xmlns="http://www.w3.org/2000/svg"><clipPath id="p.0"><path d="m0 0l960.0 0l0 720.0l-960.0 0l0 -720.0z" clip-rule="nonzero"/></clipPath><g clip-path="url(#p.0)"><path fill="#000000" fill-opacity="0.0" d="m0 0l960.0 0l0 720.0l-960.0 0z" fill-rule="evenodd"/><path fill="#000000" fill-opacity="0.0" d="m31.671917 422.04462l297.92126 1.3858337" fill-rule="evenodd"/><path stroke="#000000" stroke-width="12.0" stroke-linejoin="round" stroke-linecap="butt" d="m31.671917 422.04462l297.92126 1.3858337" fill-rule="evenodd"/><path fill="#000000" fill-opacity="0.0" d="m380.6378 422.04462l160.00003 1.3858337" fill-rule="evenodd"/><path stroke="#000000" stroke-width="12.0" stroke-linejoin="round" stroke-linecap="butt" d="m380.6378 422.04462l160.00003 1.3858337" fill-rule="evenodd"/><path fill="#000000" fill-opacity="0.0" d="m579.26245 423.43045l78.6142 0" fill-rule="evenodd"/><path stroke="#000000" stroke-width="12.0" stroke-linejoin="round" stroke-linecap="butt" d="m579.26245 423.43045l78.6142 0" fill-rule="evenodd"/><path fill="#000000" fill-opacity="0.0" d="m707.5381 423.43045l211.02362 1.3858337" fill-rule="evenodd"/><path stroke="#000000" stroke-width="12.0" stroke-linejoin="round" stroke-linecap="butt" d="m707.5381 423.43045l211.02362 1.3858337" fill-rule="evenodd"/><path fill="#000000" fill-opacity="0.0" d="m241.6693 325.32285l458.01575 0" fill-rule="evenodd"/><path stroke="#000000" stroke-width="12.0" stroke-linejoin="round" stroke-linecap="butt" d="m241.6693 325.32285l458.01575 0" fill-rule="evenodd"/><path fill="#000000" fill-opacity="0.0" d="m36.553806 546.56696l424.40945 5.826721" fill-rule="evenodd"/><path stroke="#000000" stroke-width="12.0" stroke-linejoin="round" stroke-linecap="butt" d="m36.553806 546.56696l424.40945 5.826721" fill-rule="evenodd"/><path fill="#000000" fill-opacity="0.0" d="m521.23096 546.56696l126.14172 3.8739624" fill-rule="evenodd"/><path stroke="#000000" stroke-width="12.0" stroke-linejoin="round" stroke-linecap="butt" d="m521.23096 546.56696l126.14172 3.8739624" fill-rule="evenodd"/><path fill="#000000" fill-opacity="0.0" d="m678.7323 548.50397l85.3858 0" fill-rule="evenodd"/><path stroke="#000000" stroke-width="12.0" stroke-linejoin="round" stroke-linecap="butt" d="m678.7323 548.50397l85.3858 0" fill-rule="evenodd"/><path fill="#000000" fill-opacity="0.0" d="m802.53284 548.9921l125.79523 -0.9763794" fill-rule="evenodd"/><path stroke="#000000" stroke-width="12.0" stroke-linejoin="round" stroke-linecap="butt" d="m802.53284 548.9921l125.79523 -0.9763794" fill-rule="evenodd"/><path fill="#000000" fill-opacity="0.0" d="m123.11811 630.5617l706.5827 6.708618" fill-rule="evenodd"/><path stroke="#000000" stroke-width="12.0" stroke-linejoin="round" stroke-linecap="butt" d="m123.11811 630.5617l706.5827 6.708618" fill-rule="evenodd"/><path fill="#000000" fill-opacity="0.0" d="m271.82285 704.34906l214.64566 2.236267" fill-rule="evenodd"/><path stroke="#000000" stroke-width="12.0" stroke-linejoin="round" stroke-linecap="butt" d="m271.82285 704.34906l214.64566 2.236267" fill-rule="evenodd"/><path fill="#000000" fill-opacity="0.0" d="m579.26245 704.34906l143.1181 2.236267" fill-rule="evenodd"/><path stroke="#000000" stroke-width="12.0" stroke-linejoin="round" stroke-linecap="butt" d="m579.26245 704.34906l143.1181 2.236267" fill-rule="evenodd"/><path fill="#000000" fill-opacity="0.0" d="m789.45404 706.5853l107.33862 2.236206" fill-rule="evenodd"/><path stroke="#000000" stroke-width="12.0" stroke-linejoin="round" stroke-linecap="butt" d="m789.45404 706.5853l107.33862 2.236206" fill-rule="evenodd"/><path fill="#000000" fill-opacity="0.0" d="m91.81365 704.34906l98.3937 2.236267" fill-rule="evenodd"/><path stroke="#000000" stroke-width="12.0" stroke-linejoin="round" stroke-linecap="butt" d="m91.81365 704.34906l98.3937 2.236267" fill-rule="evenodd"/><path fill="#000000" fill-opacity="0.0" d="m173.59055 109.56431l612.81885 0l0 107.84252l-612.81885 0z" fill-rule="evenodd"/><path fill="#000000" d="m272.92236 222.4643q-6.609375 0 -13.4375 -1.453125q-6.828125 -1.4375 -10.984375 -3.359375l1.390625 -10.765625q5.328125 2.5625 12.046875 4.484375q6.71875 1.921875 13.328125 1.921875q7.46875 0 11.578125 -2.71875q4.109375 -2.734375 4.109375 -8.171875q0 -4.046875 -2.078125 -6.765625q-2.078125 -2.71875 -6.078125 -4.578125q-4.0 -1.875 -11.15625 -4.015625q-7.25 -2.125 -12.046875 -4.578125q-4.796875 -2.453125 -7.734375 -6.71875q-2.9375 -4.265625 -2.9375 -10.78125q0 -9.0625 6.984375 -14.609375q7.0 -5.546875 19.6875 -5.546875q6.828125 0 12.953125 1.5q6.140625 1.484375 10.71875 3.625l-1.0625 10.765625q-5.96875 -3.515625 -11.515625 -5.109375q-5.546875 -1.609375 -11.515625 -1.609375q-6.9375 0 -11.046875 2.5625q-4.109375 2.5625 -4.109375 7.890625q0 3.625 1.859375 5.984375q1.875 2.34375 5.390625 4.0q3.53125 1.640625 9.8125 3.5625q12.59375 3.84375 18.78125 9.125q6.1875 5.28125 6.1875 14.546875q0 9.8125 -7.359375 15.3125q-7.359375 5.5 -21.765625 5.5zm63.990417 -0.4375q-8.953125 0 -15.296875 -3.671875q-6.34375 -3.6875 -9.65625 -9.96875q-3.296875 -6.296875 -3.296875 -13.984375q0 -7.359375 3.03125 -13.484375q3.046875 -6.140625 8.859375 -9.703125q5.8125 -3.578125 13.703125 -3.578125q10.015625 0 16.25 5.875q6.25 5.859375 6.25 16.203125q0 2.671875 -0.421875 5.125l-37.859375 0q0.953125 10.125 6.171875 14.390625q5.234375 4.265625 13.453125 4.265625q8.203125 0 15.03125 -3.09375l1.28125 7.578125q-9.0625 4.046875 -17.5 4.046875zm9.921875 -33.8125q0 -5.640625 -3.203125 -8.84375q-3.1875 -3.203125 -9.59375 -3.203125q-6.1875 0 -9.703125 3.046875q-3.515625 3.03125 -5.015625 9.0l27.515625 0zm45.436157 -20.578125q21.328125 0 21.328125 24.53125l0 28.796875l-9.59375 0l0 -28.796875q0 -8.421875 -3.15625 -12.203125q-3.140625 -3.796875 -10.5 -3.796875q-4.6875 0 -8.53125 1.71875q-3.828125 1.703125 -5.75 5.109375l0 37.96875l-9.609375 0l0 -52.265625l7.46875 0l1.0625 5.546875q4.171875 -3.734375 8.375 -5.171875q4.21875 -1.4375 8.90625 -1.4375zm51.83963 54.390625q-6.9375 0 -10.296875 -3.625q-3.359375 -3.625 -3.359375 -8.84375l0 -33.390625l-8.953125 0l0.84375 -7.46875l8.109375 0l0 -12.90625l9.609375 -0.953125l0 13.859375l13.75 0l0 7.46875l-13.75 0l0 27.515625q0 5.4375 0.640625 7.46875q0.640625 2.03125 2.71875 2.625q2.078125 0.578125 7.625 0.578125l2.453125 0l-0.75 7.671875l-8.640625 0zm42.974426 0q-8.953125 0 -15.296875 -3.671875q-6.34375 -3.6875 -9.65625 -9.96875q-3.296875 -6.296875 -3.296875 -13.984375q0 -7.359375 3.03125 -13.484375q3.046875 -6.140625 8.859375 -9.703125q5.8125 -3.578125 13.703125 -3.578125q10.015625 0 16.25 5.875q6.25 5.859375 6.25 16.203125q0 2.671875 -0.421875 5.125l-37.859375 0q0.953125 10.125 6.171875 14.390625q5.234375 4.265625 13.453125 4.265625q8.203125 0 15.03125 -3.09375l1.28125 7.578125q-9.0625 4.046875 -17.5 4.046875zm9.921875 -33.8125q0 -5.640625 -3.203125 -8.84375q-3.1875 -3.203125 -9.59375 -3.203125q-6.1875 0 -9.703125 3.046875q-3.515625 3.03125 -5.015625 9.0l27.515625 0zm45.436188 -20.578125q21.328125 0 21.328125 24.53125l0 28.796875l-9.59375 0l0 -28.796875q0 -8.421875 -3.15625 -12.203125q-3.140625 -3.796875 -10.5 -3.796875q-4.6875 0 -8.53125 1.71875q-3.828125 1.703125 -5.75 5.109375l0 37.96875l-9.609375 0l0 -52.265625l7.46875 0l1.0625 5.546875q4.171875 -3.734375 8.375 -5.171875q4.21875 -1.4375 8.90625 -1.4375zm57.80835 54.390625q-8.53125 0 -14.671875 -3.515625q-6.125 -3.515625 -9.21875 -9.640625q-3.09375 -6.140625 -3.09375 -13.71875q0 -12.375 6.984375 -19.9375q6.984375 -7.578125 20.75 -7.578125q8.109375 0 14.296875 3.09375l-1.5 8.421875q-6.5 -2.984375 -13.015625 -2.984375q-8.53125 0 -13.125 4.859375q-4.578125 4.84375 -4.578125 13.703125q0 8.84375 4.421875 13.859375q4.4375 5.015625 13.078125 5.015625q6.921875 0 13.328125 -3.203125l1.28125 7.6875q-2.34375 1.59375 -6.453125 2.765625q-4.109375 1.171875 -8.484375 1.171875zm49.484497 0q-8.953125 0 -15.296875 -3.671875q-6.34375 -3.6875 -9.65625 -9.96875q-3.296875 -6.296875 -3.296875 -13.984375q0 -7.359375 3.03125 -13.484375q3.046875 -6.140625 8.859375 -9.703125q5.8125 -3.578125 13.703125 -3.578125q10.015625 0 16.25 5.875q6.25 5.859375 6.25 16.203125q0 2.671875 -0.421875 5.125l-37.859375 0q0.953125 10.125 6.171875 14.390625q5.234375 4.265625 13.453125 4.265625q8.203125 0 15.03125 -3.09375l1.28125 7.578125q-9.0625 4.046875 -17.5 4.046875zm9.921875 -33.8125q0 -5.640625 -3.203125 -8.84375q-3.1875 -3.203125 -9.59375 -3.203125q-6.1875 0 -9.703125 3.046875q-3.515625 3.03125 -5.015625 9.0l27.515625 0zm34.451782 33.8125q-6.1875 0 -10.828125 -1.4375q-4.640625 -1.4375 -7.09375 -3.140625l1.1875 -9.28125q2.125 1.921875 6.546875 3.625q4.4375 1.703125 9.765625 1.703125q5.015625 0 7.734375 -1.703125q2.71875 -1.703125 2.71875 -4.796875q0 -3.625 -2.984375 -5.484375q-2.984375 -1.875 -7.46875 -3.15625q-4.90625 -1.28125 -8.265625 -2.71875q-3.359375 -1.4375 -5.765625 -4.421875q-2.390625 -3.0 -2.390625 -7.90625q0 -6.71875 4.796875 -11.1875q4.796875 -4.484375 14.828125 -4.484375q4.578125 0 7.78125 0.90625q3.203125 0.90625 6.40625 2.5l-1.1875 8.75q-2.546875 -2.125 -5.640625 -3.34375q-3.09375 -1.234375 -7.15625 -1.234375q-4.6875 0 -7.40625 1.765625q-2.71875 1.75 -2.71875 5.265625q0 2.34375 1.28125 3.796875q1.28125 1.4375 3.625 2.40625q2.34375 0.953125 7.25 2.4375q6.078125 1.8125 10.5 5.125q4.4375 3.296875 4.4375 10.453125q0 6.390625 -4.546875 10.984375q-4.53125 4.578125 -15.40625 4.578125z" fill-rule="nonzero"/></g></svg>