<?xml version="1.0" encoding="UTF-8" standalone="no"?>
<svg
   xmlns:dc="http://purl.org/dc/elements/1.1/"
   xmlns:cc="http://creativecommons.org/ns#"
   xmlns:rdf="http://www.w3.org/1999/02/22-rdf-syntax-ns#"
   xmlns:svg="http://www.w3.org/2000/svg"
   xmlns="http://www.w3.org/2000/svg"
   xmlns:sodipodi="http://sodipodi.sourceforge.net/DTD/sodipodi-0.dtd"
   xmlns:inkscape="http://www.inkscape.org/namespaces/inkscape"
   height="239.99817pt"
   viewBox="0 0 240 239.99817"
   width="240pt"
   id="svg2"
   version="1.1"
   inkscape:version="0.91 r13725"
   sodipodi:docname="pizza.svg">
  <metadata
     id="metadata68">
    <rdf:RDF>
      <cc:Work
         rdf:about="">
        <dc:format>image/svg+xml</dc:format>
        <dc:type
           rdf:resource="http://purl.org/dc/dcmitype/StillImage" />
        <dc:title></dc:title>
      </cc:Work>
    </rdf:RDF>
  </metadata>
  <defs
     id="defs66" />
  <sodipodi:namedview
     pagecolor="#ffffff"
     bordercolor="#666666"
     borderopacity="1"
     objecttolerance="10"
     gridtolerance="10"
     guidetolerance="10"
     inkscape:pageopacity="0"
     inkscape:pageshadow="2"
     inkscape:window-width="1366"
     inkscape:window-height="695"
     id="namedview64"
     showgrid="false"
     fit-margin-top="0"
     fit-margin-left="0"
     fit-margin-right="0"
     fit-margin-bottom="0"
     inkscape:zoom="0.36875"
     inkscape:cx="320"
     inkscape:cy="319.99511"
     inkscape:window-x="0"
     inkscape:window-y="27"
     inkscape:window-maximized="1"
     inkscape:current-layer="svg2" />
  <path
     d="M 148.1012,212.67517 233.50342,6.49659 27.322998,91.898805 C 49.180297,144.66432 91.166382,189.09303 148.1012,212.67517 Z m 0,0"
     id="path4"
     inkscape:connector-curvature="0"
     style="fill:#ffe477" />
  <path
     d="m 173.05663,152.42799 -18.26293,44.08997 c -8.50342,-6.69617 -11.89819,-18.46253 -7.55127,-28.95631 4.34509,-10.49194 15.06592,-16.41173 25.8142,-15.13366 z m -9.01245,-79.337775 c 4.33412,-10.46448 0.9723,-22.19421 -7.48168,-28.89954 L 116.51916,60.7782 c -1.23596,10.71717 4.68018,21.39039 15.14283,25.72449 12.64709,5.238645 27.14538,-0.767205 32.38219,-13.412475 z m -60.53466,16.61499 c 3.20252,-7.730715 2.20276,-16.15539 -1.94824,-22.732545 L 56.433105,85.6659 c 1.713867,7.586055 6.963501,14.251095 14.696046,17.45361 12.645263,5.23681 27.143555,-0.76904 32.380369,-13.414305 z m 26.00098,21.511235 c -12.6471,-5.23865 -27.14356,0.76539 -32.382205,13.41247 -5.238646,12.6471 0.767213,27.14356 13.412475,32.38221 12.6471,5.23865 27.14539,-0.76722 32.3822,-13.41248 5.23865,-12.6471 -0.76721,-27.14539 -13.41247,-32.3822 z m 69.54163,-30.86426 c -12.6471,-5.238645 -27.14539,0.765375 -32.38221,13.412475 -5.23864,12.647105 0.76722,27.143545 13.41248,32.382195 1.11877,0.46326 2.2522,0.83863 3.39294,1.12977 l 18.7738,-45.324105 C 201.23657,81.35193 200.1709,80.81544 199.05213,80.35218 Z M 220.74096,17.607435 174.9939,36.55701 c 2.28882,6.315315 7.12279,11.683965 13.81713,14.458005 11.02296,4.56483 23.45398,0.589605 29.93226,-8.882445 l 3.92028,-9.468375 c 0.97413,-5.18922 0.23437,-10.447995 -1.92261,-15.05676 z m 0,0"
     id="path6"
     inkscape:connector-curvature="0"
     style="fill:#ffb655" />
  <path
     d="m 115.45166,111.2146 c -12.64526,-5.23864 -27.143555,0.76722 -32.382202,13.41431 -5.238648,12.64527 0.767211,27.14356 13.412475,32.38221 12.647097,5.23864 27.145387,-0.76722 32.384037,-13.41248 5.23864,-12.6471 -0.76722,-27.14539 -13.41431,-32.38404 z m 0,0"
     id="path8"
     inkscape:connector-curvature="0"
     style="fill:#ff3f62" />
  <path
     d="M 148.1012,212.67517 C 91.166382,189.09303 49.180297,144.66432 27.322998,91.898805 L 4.5941162,101.31409 C 28.859253,159.89685 75.474243,209.22365 138.68591,235.40589 Z m 0,0"
     id="path10"
     inkscape:connector-curvature="0"
     style="fill:#ffb655" />
  <g
     id="g12"
     transform="scale(0.46875,0.46875)"
     style="fill:#ff3f62">
    <path
       d="m 372.79687,108.83203 c 26.98047,11.17188 57.90625,-1.64062 69.08204,-28.617186 5.91797,-14.28125 5.10937,-29.671875 -0.96485,-42.652344 l -97.59375,40.421875 c 4.88281,13.476563 15.19531,24.929685 29.47656,30.847655 z m 0,0"
       id="path14"
       inkscape:connector-curvature="0" />
    <path
       d="m 250.88281,184.53906 c 26.97656,11.17578 57.90625,-1.63672 69.08203,-28.61328 9.2461,-22.32031 2.07032,-47.34765 -15.96484,-61.652342 l -85.42578,35.386722 c -2.63672,22.86328 9.98437,45.63281 32.30859,54.8789 z m 0,0"
       id="path16"
       inkscape:connector-curvature="0" />
    <path
       d="m 121.74219,219.98828 c 26.97656,11.17188 57.90625,-1.63672 69.08203,-28.61719 6.83203,-16.49218 4.69531,-34.46484 -4.16016,-48.49609 l -96.273435,39.87891 c 3.65625,16.18359 14.855465,30.40234 31.351565,37.23437 z m 0,0"
       id="path18"
       inkscape:connector-curvature="0" />
    <path
       d="m 364.89453,335.54297 c -3.51953,-2.66016 -7.42969,-4.92188 -11.69531,-6.69141 -26.98047,-11.17578 -57.91016,1.63672 -69.08203,28.61719 -11.17578,26.97656 1.63281,57.90625 28.61328,69.08203 4.26562,1.76563 8.63281,2.9336 13,3.53906 z m 0,0"
       id="path20"
       inkscape:connector-curvature="0" />
    <path
       d="m 422.10156,197.4375 c -5.43359,-11.35547 -14.91406,-20.82422 -27.45703,-26.01953 -26.98047,-11.17578 -57.91016,1.63672 -69.08203,28.61328 -11.17578,26.97656 1.63672,57.90625 28.61328,69.08203 12.54688,5.19531 25.94531,5.20703 37.8125,1.01563 z m 0,0"
       id="path22"
       inkscape:connector-curvature="0" />
  </g>
  <path
     d="M 41.385498,91.898805 230.59204,13.52784 233.50342,6.49659 27.322998,91.898805 C 49.180297,144.66432 91.166382,189.09303 148.1012,212.67517 l 2.20093,-5.31555 C 99.387817,182.76308 61.695556,140.93079 41.385498,91.898805 Z m 0,0"
     id="path24"
     inkscape:connector-curvature="0"
     style="fill:#ffb655" />
  <path
     d="m 110.54077,157.01112 c -12.645262,-5.23865 -18.651121,-19.73694 -13.412475,-32.38221 2.977295,-7.18872 8.946535,-12.23144 15.867925,-14.28222 -12.01538,-3.57239 -25.028692,2.44629 -29.930425,14.28222 -5.238646,12.64527 0.765381,27.14356 13.412477,32.38221 5.456538,2.26135 11.259158,2.42614 16.514278,0.86974 -0.82214,-0.24535 -1.64062,-0.53466 -2.45178,-0.86974 z m 0,0"
     id="path26"
     inkscape:connector-curvature="0"
     style="fill:#c70024" />
  <path
     d="m 18.656616,101.31409 10.784913,-4.469605 c -0.725098,-1.640625 -1.431885,-3.28857 -2.118531,-4.94568 L 4.5941162,101.31409 C 28.859253,159.89685 75.474243,209.22365 138.68591,235.40589 l 2.18811,-5.28076 C 83.690185,202.90101 41.376342,156.16516 18.656616,101.31409 Z m 0,0"
     id="path28"
     inkscape:connector-curvature="0"
     style="fill:#ff7956" />
  <path
     d="m 188.81103,51.015015 c -6.69434,-2.77404 -11.52831,-8.14269 -13.81713,-14.458005 l 33.42772,-13.846425 c -0.3955,-1.76148 -0.9796,-3.47352 -1.74316,-5.10315 L 160.92957,36.55701 c 2.29065,6.315315 7.12279,11.683965 13.81896,14.458005 5.45655,2.259525 11.25916,2.42616 16.51428,0.86976 -0.82214,-0.24537 -1.64063,-0.534675 -2.45178,-0.86976 z m 0,0"
     id="path30"
     inkscape:connector-curvature="0"
     style="fill:#c70024" />
  <path
     d="M 131.66382,86.50269 C 121.19934,82.16859 115.2832,71.49537 116.51916,60.7782 L 146.5979,48.31788 c -1.18652,-1.51611 -2.55615,-2.90589 -4.09607,-4.127205 L 102.45666,60.7782 c -1.23596,10.71717 4.68201,21.39039 15.14466,25.72449 5.45654,2.261355 11.25915,2.427975 16.51428,0.86976 -0.82397,-0.24537 -1.64245,-0.534675 -2.45178,-0.86976 z m 0,0"
     id="path32"
     inkscape:connector-curvature="0"
     style="fill:#c70024" />
  <path
     d="M 71.129151,103.11951 C 63.396606,99.916995 58.146972,93.251955 56.433105,85.6659 L 89.866333,71.81763 C 89.254761,70.123905 88.461914,68.499765 87.498778,66.97266 L 42.370605,85.6659 c 1.715698,7.586055 6.963501,14.251095 14.696046,17.45361 5.456543,2.25952 11.259155,2.42614 16.51245,0.86793 -0.822143,-0.24354 -1.640625,-0.53285 -2.44995,-0.86793 z m 0,0"
     id="path34"
     inkscape:connector-curvature="0"
     style="fill:#c70024" />
  <path
     d="m 147.24243,167.56348 c 2.97729,-7.18872 8.94654,-12.23145 15.86791,-14.28406 -12.01537,-3.57056 -25.02868,2.44812 -29.93041,14.28406 -5.23865,12.64526 0.76538,27.14355 13.41248,32.3822 1.99951,0.82764 4.04663,1.37513 6.09557,1.65894 l 2.10572,-5.08666 c -8.50342,-6.69617 -11.89819,-18.46253 -7.55127,-28.95447 z m 0,0"
     id="path36"
     inkscape:connector-curvature="0"
     style="fill:#c70024" />
  <path
     d="m 180.08239,126.14685 c -12.64525,-5.23865 -18.65112,-19.73693 -13.41247,-32.382195 2.97729,-7.18872 8.94654,-12.23145 15.86791,-14.28222 -12.01537,-3.5724 -25.02868,2.44629 -29.93041,14.28222 -5.23865,12.645265 0.76722,27.143545 13.41247,32.382195 5.45655,2.25952 11.25917,2.42616 16.51246,0.86976 -0.82214,-0.24537 -1.64063,-0.53468 -2.44996,-0.86976 z m 0,0"
     id="path38"
     inkscape:connector-curvature="0"
     style="fill:#c70024" />
  <path
     d="M 30.571289,90.55299 29.225464,87.304695 0,99.41163 l 1.3458253,3.24646 c 12.4877927,30.15197 30.3826907,57.17468 53.1848147,80.31921 23.607787,23.96301 51.46912,42.6947 82.80945,55.67688 l 3.24829,1.34399 12.10509,-29.22546 -3.24828,-1.34399 C 95.240478,186.97449 53.023681,144.75769 30.571289,90.55299 Z M 136.7926,230.7898 C 79.151001,205.96069 34.037475,160.84717 9.2102053,103.20741 L 25.444336,96.481935 c 11.189574,25.896615 26.859741,49.169305 46.609497,69.215695 20.480346,20.78798 44.507447,37.21253 71.464237,48.8562 z m 0,0"
     id="path40"
     inkscape:connector-curvature="0" />
  <path
     d="m 74.688721,99.87123 c -9.550781,3.95323 -20.15625,0.43761 -25.667725,-7.60071 l -5.797119,3.97704 c 7.349853,10.719 21.465455,15.37537 34.156494,10.11841 12.733155,-5.27344 19.370727,-18.581545 16.997681,-31.307365 l -6.912231,1.287225 c 1.78894,9.596565 -3.242798,19.57581 -12.777099,23.5254 z m 0,0"
     id="path42"
     inkscape:connector-curvature="0" />
  <path
     d="m 176.09436,47.766735 c -2.96814,-1.23048 -5.55358,-3.05604 -7.68128,-5.427255 l -5.23315,4.696665 c 2.8363,3.160395 6.27502,5.59203 10.22278,7.227165 14.41406,5.971065 31.00525,-0.89904 36.97632,-15.31677 1.63513,-3.94776 2.34924,-8.098755 2.11853,-12.33765 l -7.02027,0.379035 c 0.17212,3.18054 -0.36438,6.29883 -1.59485,9.2688 -4.48791,10.83435 -16.95373,15.99792 -27.78808,11.51001 z m 0,0"
     id="path44"
     inkscape:connector-curvature="0" />
  <path
     d="m 118.94531,83.254395 c -5.9729,-2.473755 -10.44616,-7.45605 -12.27173,-13.66881 l -6.745602,1.9812 c 2.426152,8.263545 8.377072,14.891955 16.327512,18.1842 14.41407,5.971065 31.00342,-0.897225 36.97449,-15.31494 3.29223,-7.950435 2.81433,-16.845705 -1.31286,-24.404295 l -6.17066,3.369135 c 3.10181,5.68359 3.46252,12.368775 0.98877,18.3435 -4.48792,10.83435 -16.95374,15.997935 -27.78992,11.51001 z m 0,0"
     id="path46"
     inkscape:connector-curvature="0" />
  <path
     d="m 149.35913,92.418825 c -5.98572,14.450685 0.86426,30.990605 15.31494,36.976315 2.57997,1.06751 5.28442,1.74866 8.03833,2.02149 l 0.6958,-6.99646 c -2.06909,-0.20508 -4.10156,-0.71776 -6.0443,-1.5216 -10.85999,-4.4989 -16.00892,-16.92627 -11.51001,-27.788085 4.48791,-10.83435 16.95373,-15.999765 27.78991,-11.51001 1.94091,0.803835 3.74085,1.87866 5.34851,3.19701 l 4.45678,-5.44005 c -2.14233,-1.75416 -4.53552,-3.186045 -7.11547,-4.25355 -14.41589,-5.971065 -31.00341,0.899055 -36.97449,15.31494 z m 0,0"
     id="path48"
     inkscape:connector-curvature="0" />
  <path
     d="m 161.68396,156.52771 1.86218,-6.78039 c -13.71277,-3.76648 -28.16528,3.31238 -33.6145,16.47033 -5.44922,13.15613 -0.23804,28.38135 12.12341,35.41444 l 3.47718,-6.11024 c -9.28528,-5.28441 -13.20008,-16.72485 -9.10401,-26.61437 4.09607,-9.88769 14.95422,-15.21058 25.25574,-12.37977 z m 0,0"
     id="path50"
     inkscape:connector-curvature="0" />
  <path
     d="m 79.817505,123.28309 c -5.985719,14.45067 0.864258,30.9906 15.314941,36.97631 14.415894,5.97108 31.003414,-0.89904 36.976314,-15.31677 5.97107,-14.41589 -0.89904,-31.00341 -15.31677,-36.97449 -14.44885,-5.98571 -30.988768,0.86244 -36.974485,15.31495 z m 34.284665,-8.82019 c 10.83435,4.48791 15.99793,16.95556 11.51001,27.78991 -4.48791,10.83435 -16.95373,15.99792 -27.788084,11.51001 -10.859985,-4.4989 -16.00891,-16.92627 -11.510009,-27.78808 4.480591,-10.81788 16.884153,-16.02723 27.788083,-11.51184 z m 0,0"
     id="path52"
     inkscape:connector-curvature="0" />
  <path
     d="M 34.639893,85.063485 37.329712,91.55823 227.00683,12.993165 148.43994,202.66847 154.93653,205.36011 240,0 Z m 0,0"
     id="path54"
     inkscape:connector-curvature="0" />
  <path
     d="m 130.68603,222.33948 c -2.15148,-1.02173 -4.30664,-2.08374 -6.40136,-3.15674 l 3.20251,-6.25854 c 2.0343,1.04004 4.12537,2.07092 6.2146,3.06335 z m -10.61462,-5.36499 c -2.08557,-1.11878 -4.18396,-2.28515 -6.23657,-3.46802 l 3.50647,-6.09375 c 1.99402,1.14807 4.03198,2.2815 6.0553,3.36731 z m -10.3363,-5.88318 C 92.808839,200.88869 77.162475,188.54555 63.231812,174.40431 l 5.007934,-4.9347 c 13.520508,13.72375 28.701783,25.70069 45.124514,35.59936 z m 0,0"
     id="path56"
     inkscape:connector-curvature="0"
     style="fill:#ffffff" />
  <path
     d="m 105.97778,149.95057 c -6.436154,0 -12.185666,-3.8379 -14.646604,-9.77601 l 6.496583,-2.69164 c 1.367798,3.30322 4.566651,5.4364 8.150021,5.4364 0.17395,0 0.34974,-0.006 0.52369,-0.0165 l 0.43029,7.01843 c -0.3186,0.0201 -0.63537,0.0293 -0.95398,0.0293 z m 6.75293,-1.51978 -3.0011,-6.35742 c 1.52344,-0.71961 2.80152,-1.85852 3.69507,-3.2904 l 5.96741,3.71703 c -1.6095,2.5818 -3.91296,4.63257 -6.66138,5.93079 z m 8.8147,-11.51001 -6.91772,-1.25427 c 0.0934,-0.51819 0.14098,-1.04553 0.14098,-1.56921 0,-1.15173 -0.22522,-2.27967 -0.67017,-3.3545 l 6.49476,-2.68981 c 0.80017,1.93176 1.20666,3.96423 1.20666,6.04431 0,0.94299 -0.0861,1.8933 -0.25452,2.82348 z m 0,0"
     id="path58"
     inkscape:connector-curvature="0"
     style="fill:#ffffff" />
  <path
     d="m 169.44397,117.87964 c -8.06763,-3.34167 -11.91285,-12.62329 -8.57116,-20.690905 l 6.49657,2.689815 c -1.85851,4.48608 0.28016,9.64782 4.76624,11.50635 z m 0,0"
     id="path60"
     inkscape:connector-curvature="0"
     style="fill:#ffffff" />
  <path
     d="m 127.1228,79.442145 c -0.009,0 -0.0183,0 -0.0293,0 -6.43067,0 -12.18018,-3.837885 -14.63929,-9.775995 l 6.49476,-2.69166 c 1.36779,3.303225 4.56848,5.436405 8.15185,5.436405 0.17578,-0.006 0.35156,-0.003 0.52185,-0.015 l 0.4303,7.01844 c -0.30945,0.0183 -0.62073,0.02745 -0.93018,0.02745 z m 6.72913,-1.51794 -3.0011,-6.35925 c 1.52344,-0.71961 2.80151,-1.8567 3.69507,-3.290415 l 5.96741,3.717045 c -1.60767,2.583615 -3.91114,4.6344 -6.66138,5.93262 z m 8.8147,-11.51184 -6.91773,-1.25427 c 0.0934,-0.51819 0.14099,-1.045545 0.14099,-1.569225 0,-1.15173 -0.22522,-2.279655 -0.67017,-3.35265 l 6.49658,-2.69166 c 0.80017,1.93176 1.20484,3.96423 1.20484,6.04431 0,0.94299 -0.0861,1.893315 -0.25452,2.823495 z m 0,0"
     id="path62"
     inkscape:connector-curvature="0"
     style="fill:#ffffff" />
</svg>
