<svg height="512pt" viewBox="-9 0 512 512.12667" width="512pt" xmlns="http://www.w3.org/2000/svg"><path d="m476.753906 300.265625c0 116.964844-106.726562 211.859375-238.347656 211.859375-131.617188 0-238.34375-94.894531-238.34375-211.859375-.0117188-22.144531 3.875-44.113281 11.476562-64.910156 3.679688-9.9375 5.964844-20.332031 6.789063-30.898438 8.5-115.257812 104.484375-204.4374998 220.054687-204.457031 115.574219-.0195312 211.585938 89.132812 220.125 204.386719.820313 10.5625 3.097657 20.960937 6.769532 30.898437 7.601562 20.820313 11.484375 42.816406 11.476562 64.980469zm0 0" fill="#f0c419"/><path d="m459.097656 362.058594h-79.449218c-7.136719-.003906-13.574219-4.304688-16.304688-10.898438-2.734375-6.597656-1.222656-14.191406 3.824219-19.238281l49.300781-49.3125h-36.820312c-9.75 0-17.652344-7.90625-17.652344-17.65625s7.902344-17.652344 17.652344-17.652344h79.449218c7.140625 0 13.574219 4.300781 16.308594 10.898438 2.730469 6.59375 1.222656 14.1875-3.828125 19.238281l-49.300781 49.308594h36.820312c9.75 0 17.65625 7.90625 17.65625 17.65625s-7.90625 17.65625-17.65625 17.65625zm0 0" fill="#285680"/><path d="m476.753906 211.988281h-79.449218c-7.140626 0-13.574219-4.300781-16.308594-10.898437-2.730469-6.597656-1.222656-14.1875 3.828125-19.238282l49.300781-49.3125h-36.820312c-9.75 0-17.65625-7.902343-17.65625-17.652343 0-9.753907 7.90625-17.65625 17.65625-17.65625h79.449218c7.140625 0 13.574219 4.300781 16.308594 10.898437 2.730469 6.597656 1.21875 14.1875-3.828125 19.238282l-49.300781 49.3125h36.820312c9.75 0 17.652344 7.902343 17.652344 17.652343 0 9.753907-7.902344 17.65625-17.652344 17.65625zm0 0" fill="#285680"/><path d="m151.519531 177.234375c-3.554687-.003906-6.757812-2.136719-8.132812-5.414063-1.371094-3.273437-.648438-7.054687 1.835937-9.59375 20.304688-20.65625 37.960938-27.691406 50.707032-29.449218-3.832032-3.996094-8.699219-6.847656-14.0625-8.234375-11.148438-1.65625-22.507813.988281-31.777344 7.398437-3.953125 2.859375-9.472656 1.972656-12.332032-1.980468-2.859374-3.949219-1.976562-9.472657 1.976563-12.332032 13.417969-9.394531 30.011719-13.089844 46.148437-10.273437 16.074219 4.585937 29.214844 16.1875 35.753907 31.566406 1.722656 3.386719 1.089843 7.496094-1.574219 10.203125-2.667969 2.707031-6.765625 3.402344-10.175781 1.734375-.652344-.273437-20.515625-8.300781-52.039063 23.734375-1.667968 1.699219-3.949218 2.648438-6.328125 2.640625zm0 0" fill="#d25627"/><path d="m328.917969 177.234375c-2.367188-.003906-4.628907-.957031-6.285157-2.648437-31.78125-32.308594-51.855468-23.835938-52.082031-23.738282-3.414062 1.671875-7.511719.972656-10.175781-1.734375s-3.300781-6.8125-1.574219-10.199219c6.527344-15.378906 19.652344-26.988281 35.714844-31.585937 16.136719-2.8125 32.730469.882813 46.152344 10.277344 3.949219 2.859375 4.832031 8.378906 1.972656 12.328125-2.859375 3.949218-8.378906 4.832031-12.328125 1.972656-9.269531-6.410156-20.632812-9.050781-31.78125-7.390625-5.359375 1.386719-10.230469 4.238281-14.0625 8.238281 12.765625 1.765625 30.378906 8.824219 50.707031 29.445313 2.488281 2.539062 3.210938 6.320312 1.835938 9.59375-1.375 3.277343-4.578125 5.410156-8.128907 5.414062zm0 0" fill="#d25627"/><path d="m335.511719 398.25c0 57.769531-43.476563 69.738281-97.105469 69.738281-53.625 0-97.101562-11.960937-97.101562-69.738281s43.476562-130.734375 97.101562-130.734375c53.628906 0 97.105469 72.976563 97.105469 130.734375zm0 0" fill="#802d40"/><path d="m335.070312 407.785156v.085938c-4.679687 49.4375-46.078124 60.117187-96.664062 60.117187-50.316406 0-91.539062-10.503906-96.570312-59.320312v-.089844c.378906-1.449219.882812-2.867187 1.5-4.234375 6.179687-13.949219 26.660156-24.101562 50.933593-24.101562 14.90625-.441407 29.546875 4.023437 41.667969 12.710937 11.066406-14.441406 28.421875-22.660156 46.609375-22.066406 25.246094 0 46.433594 14.121093 51.730469 33.101562.347656 1.246094.613281 2.515625.792968 3.796875zm0 0" fill="#ff5364"/></svg>