<?xml version="1.0" encoding="iso-8859-1"?>
<!-- Generator: Adobe Illustrator 19.0.0, SVG Export Plug-In . SVG Version: 6.00 Build 0)  -->
<svg version="1.1" id="Layer_1" xmlns="http://www.w3.org/2000/svg" xmlns:xlink="http://www.w3.org/1999/xlink" x="0px" y="0px"
	 viewBox="0 0 512.853 512.853" style="enable-background:new 0 0 512.853 512.853;" xml:space="preserve">
<g transform="translate(0 1)">
	<path style="fill:#FFE100;" d="M427.307,440.173l-8.533,8.533c-73.387,73.387-192,73.387-265.387,0l-8.533-8.533
		C70.613,366.787,70.613,247.32,144,174.787l141.653-140.8l141.653,139.947C499.84,247.32,499.84,366.787,427.307,440.173"/>
	<path style="fill:#FFA800;" d="M427.307,174.787l-141.653-140.8l0,0l116.053,140.8c73.387,73.387,73.387,192,0,265.387
		l-8.533,8.533c-33.28,33.28-75.947,51.2-120.32,54.613c52.053,3.413,105.813-14.507,145.92-54.613l8.533-8.533
		C499.84,366.787,499.84,248.173,427.307,174.787"/>
	<path style="fill:#FFFFFF;" d="M144,174.787l141.653-140.8l0,0L169.6,174.787c-73.387,72.533-73.387,192,0,265.387l8.533,8.533
		c33.28,33.28,75.947,51.2,120.32,54.613c-52.053,3.413-105.813-14.507-145.92-54.613L144,440.173
		C70.613,366.787,70.613,247.32,144,174.787"/>
	<path style="fill:#FFA800;" d="M220.8,244.76l-5.12,5.12c-41.813,42.667-108.373,42.667-150.187,0l-5.12-5.12
		c-41.813-42.667-41.813-111.787,0-154.453l80.213-81.92l80.213,81.92C261.76,132.973,261.76,202.093,220.8,244.76"/>
	<path style="fill:#FFFFFF;" d="M91.093,249.88l-5.12-5.12c-41.813-42.667-41.813-111.787,0-154.453l67.413-68.267l-12.8-13.653
		l-80.213,81.92c-41.813,42.667-41.813,111.787,0,154.453l5.12,5.12c23.893,24.747,56.32,34.987,87.893,30.72
		C130.347,278.04,109.013,267.8,91.093,249.88"/>
	<path d="M140.587,289.987c-30.72,0-59.733-11.947-81.067-34.987l-5.12-5.12c-44.373-46.08-44.373-120.32,0-166.4l80.213-81.92
		c3.413-3.413,9.387-3.413,11.947,0l80.213,81.92c44.373,46.08,44.373,120.32,0,166.4l-5.12,5.973
		C200.32,278.04,171.307,289.987,140.587,289.987z M140.587,20.333L67.2,95.427c-38.4,39.253-38.4,103.253,0,142.507l5.12,5.12
		c18.773,18.773,42.667,29.013,69.12,29.013s50.347-10.24,69.12-29.013l5.12-5.12c38.4-39.253,38.4-103.253,0-142.507
		L140.587,20.333z"/>
	<path d="M285.653,511.853c-52.053,0-101.547-20.48-139.093-57.173l-8.533-8.533c-46.08-46.933-66.56-113.493-52.907-177.493
		c0.853-2.56,2.56-5.12,4.267-5.973c2.56-0.853,5.12-0.853,7.68,0c13.653,6.827,28.16,10.24,43.52,10.24
		c25.6,0,50.347-10.24,69.12-29.013l5.12-5.12c36.693-37.547,38.4-98.133,3.413-138.24c-2.56-3.413-2.56-8.533,0.853-11.947
		l61.44-60.587c3.413-3.413,8.533-3.413,11.947,0L434.133,167.96c76.8,76.8,76.8,201.387,0,277.333l-8.533,8.533
		C387.2,491.373,337.707,511.853,285.653,511.853z M99.627,282.307c-7.68,55.467,11.093,111.787,50.347,151.893l8.533,8.533
		c34.133,34.133,78.507,52.907,127.147,52.907c47.787,0,93.013-18.773,127.147-52.907l8.533-8.533
		c69.973-69.973,69.973-183.467,0-253.44L285.653,45.933L236.16,95.427c34.987,46.08,31.573,112.64-9.387,155.307l-5.12,5.12
		c-21.333,22.187-50.347,34.133-81.067,34.133C126.933,289.987,112.427,287.427,99.627,282.307z"/>
	<path d="M285.653,460.653c-40.96,0-79.36-16.213-108.373-45.227l-8.533-8.533c-3.413-3.413-3.413-8.533,0-11.947
		c3.413-3.413,8.533-3.413,11.947,0l8.533,8.533c25.6,25.6,59.733,40.107,96.427,40.107s70.827-14.507,96.427-40.107l8.533-8.533
		c3.413-3.413,8.533-3.413,11.947,0c3.413,3.413,3.413,8.533,0,11.947l-8.533,8.533C365.867,444.44,326.613,460.653,285.653,460.653
		z"/>
</g>
<g>
</g>
<g>
</g>
<g>
</g>
<g>
</g>
<g>
</g>
<g>
</g>
<g>
</g>
<g>
</g>
<g>
</g>
<g>
</g>
<g>
</g>
<g>
</g>
<g>
</g>
<g>
</g>
<g>
</g>
</svg>
