<svg version="1.1" viewBox="0.0 0.0 960.0 720.0" fill="none" stroke="none" stroke-linecap="square" stroke-miterlimit="10" xmlns:xlink="http://www.w3.org/1999/xlink" xmlns="http://www.w3.org/2000/svg"><clipPath id="p.0"><path d="m0 0l960.0 0l0 720.0l-960.0 0l0 -720.0z" clip-rule="nonzero"/></clipPath><g clip-path="url(#p.0)"><path fill="#000000" fill-opacity="0.0" d="m0 0l960.0 0l0 720.0l-960.0 0z" fill-rule="evenodd"/><path fill="#000000" fill-opacity="0.0" d="m98.94226 226.8084l1044.2205 0l0 229.85826l-1044.2205 0z" fill-rule="evenodd"/><path fill="#000000" d="m123.94226 287.8084l19.0 0l0 57.796875l71.203125 0l0 -57.796875l19.0 0l0 140.0l-19.0 0l0 -64.203125l-71.203125 0l0 64.203125l-19.0 0l0 -140.0zm167.40314 135.59375l-40.79686 -93.59375l19.999985 0l30.59375 72.796875l27.59375 -72.796875l20.0 0l-60.0 146.40625l-20.0 0l22.609375 -52.8125zm110.59381 54.40625q-20.796875 0 -33.703125 -7.609375q-12.890625 -7.59375 -12.890625 -21.59375q0 -15.390625 17.0 -23.0q-9.609375 -4.796875 -9.609375 -12.390625q0 -9.609375 11.609375 -14.203125q-8.203125 -5.0 -12.609375 -13.59375q-4.390625 -8.609375 -4.390625 -19.40625q0 -10.796875 4.890625 -19.5q4.90625 -8.703125 14.0 -13.703125q9.109375 -5.0 21.5 -5.0q13.203125 0 24.0 7.59375q10.609375 -6.0 24.40625 -6.0l1.59375 0l-2.1875 12.0l-4.609375 0q-1.796875 0 -5.203125 0.40625q-3.390625 0.40625 -6.0 1.0q4.203125 4.796875 6.40625 10.796875q2.203125 6.0 2.203125 12.40625q0 11.203125 -4.90625 20.109375q-4.890625 8.890625 -14.09375 14.0q-9.203125 5.09375 -21.609375 5.09375q-7.1875 0 -13.1875 -1.8125q-4.609375 1.609375 -4.609375 5.203125q0 4.796875 11.0 6.40625l26.203125 4.203125q16.40625 2.59375 24.796875 9.390625q8.40625 6.796875 8.40625 18.796875q0 15.0 -12.90625 22.703125q-12.890625 7.703125 -35.5 7.703125zm-4.203125 -87.0q11.203125 0 17.296875 -6.703125q6.109375 -6.703125 6.109375 -17.890625q0 -10.8125 -6.109375 -17.40625q-6.09375 -6.59375 -17.296875 -6.59375q-11.1875 0 -17.1875 6.59375q-6.0 6.59375 -6.0 17.40625q0 11.1875 6.0 17.890625q6.0 6.703125 17.1875 6.703125zm5.8125 71.0q13.796875 0 21.1875 -3.609375q7.40625 -3.59375 7.40625 -10.390625q0 -5.203125 -4.5 -8.3125q-4.5 -3.09375 -13.5 -4.890625l-28.0 -4.796875q-6.0 2.796875 -9.796875 6.890625q-3.796875 4.109375 -3.796875 9.109375q0 8.203125 8.1875 12.09375q8.203125 3.90625 22.8125 3.90625zm58.39688 -174.0l18.0 0l0 20.0l-18.0 0l0 -20.0zm0 42.0l18.0 0l0 98.0l-18.0 0l0 -98.0zm89.399994 100.0q-16.796875 0 -28.703125 -6.890625q-11.90625 -6.90625 -18.109375 -18.703125q-6.1875 -11.8125 -6.1875 -26.203125q0 -13.796875 5.6875 -25.296875q5.703125 -11.5 16.609375 -18.203125q10.90625 -6.703125 25.703125 -6.703125q18.796875 0 30.5 11.0q11.703125 11.0 11.703125 30.40625q0 5.0 -0.8125 9.59375l-71.0 0q1.8125 19.0 11.609375 27.0q9.796875 8.0 25.203125 8.0q15.390625 0 28.1875 -5.796875l2.40625 14.203125q-17.0 7.59375 -32.796875 7.59375zm18.59375 -63.40625q0 -10.59375 -6.0 -16.59375q-6.0 -6.0 -18.0 -6.0q-11.59375 0 -18.203125 5.703125q-6.59375 5.703125 -9.390625 16.890625l51.59375 0zm85.1969 -38.59375q40.0 0 40.0 46.0l0 54.0l-18.0 0l0 -54.0q0 -15.796875 -5.90625 -22.890625q-5.890625 -7.109375 -19.6875 -7.109375q-8.796875 0 -16.0 3.203125q-7.203125 3.203125 -10.796875 9.59375l0 71.203125l-18.0 0l0 -98.0l14.0 0l2.0 10.40625q7.796875 -7.0 15.6875 -9.703125q7.90625 -2.703125 16.703125 -2.703125zm110.409424 102.0q-16.796875 0 -28.703125 -6.890625q-11.90625 -6.90625 -18.109375 -18.703125q-6.1875 -11.8125 -6.1875 -26.203125q0 -13.796875 5.6875 -25.296875q5.703125 -11.5 16.609375 -18.203125q10.90625 -6.703125 25.703125 -6.703125q18.796875 0 30.5 11.0q11.703125 11.0 11.703125 30.40625q0 5.0 -0.8125 9.59375l-71.0 0q1.8125 19.0 11.609375 27.0q9.796875 8.0 25.203125 8.0q15.390625 0 28.1875 -5.796875l2.40625 14.203125q-17.0 7.59375 -32.796875 7.59375zm18.59375 -63.40625q0 -10.59375 -6.0 -16.59375q-6.0 -6.0 -18.0 -6.0q-11.59375 0 -18.203125 5.703125q-6.59375 5.703125 -9.390625 16.890625l51.59375 0z" fill-rule="nonzero"/></g></svg>