<svg version="1.1" viewBox="0.0 0.0 960.0 757.7952755905512" fill="none" stroke="none" stroke-linecap="square" stroke-miterlimit="10" xmlns:xlink="http://www.w3.org/1999/xlink" xmlns="http://www.w3.org/2000/svg"><clipPath id="p.0"><path d="m0 0l960.0 0l0 757.7953l-960.0 0l0 -757.7953z" clip-rule="nonzero"/></clipPath><g clip-path="url(#p.0)"><path fill="#000000" fill-opacity="0.0" d="m0 0l960.0 0l0 757.7953l-960.0 0z" fill-rule="evenodd"/><path fill="#000000" fill-opacity="0.0" d="m-42.110237 110.54496l1044.2205 0l0 241.95276l-1044.2205 0z" fill-rule="evenodd"/><path fill="#000000" d="m350.50305 235.34184q13.203125 3.203125 20.203125 12.3125q7.0 9.093735 7.0 23.89061q0 18.59375 -11.90625 29.296875q-11.90625 10.703125 -32.703125 10.703125l-52.796875 0l0 -139.99998l44.203125 0q19.203125 0 29.703125 8.609375q10.5 8.59375 10.5 25.59375q0 10.0 -3.609375 17.796875q-3.59375 7.796875 -10.59375 11.796875zm-51.203125 -5.59375l22.796875 0q11.203125 0 17.09375 -4.5q5.90625 -4.5 5.90625 -16.109375q0 -11.59375 -5.90625 -16.09375q-5.890625 -4.5 -17.09375 -4.5l-22.796875 0l0 41.203125zm32.203125 64.593735q11.796875 0 18.59375 -5.890625q6.796875 -5.90625 6.796875 -17.5q0 -23.999985 -25.390625 -23.999985l-32.203125 0l0 47.39061l32.203125 0zm87.1969 19.203125q-13.59375 0 -21.90625 -8.0q-8.296875 -8.0 -8.296875 -20.40625q0 -18.59375 17.59375 -26.59375q17.609375 -7.9999847 41.015625 -8.406235q0 -13.1875 -5.109375 -17.890625q-5.09375 -4.703125 -16.296875 -4.703125q-6.203125 0 -12.40625 1.90625q-6.1875 1.890625 -13.390625 6.890625l-2.609375 -14.59375q6.0 -4.609375 14.796875 -7.40625q8.8125 -2.796875 18.40625 -2.796875q12.609375 0 20.109375 4.40625q7.5 4.390625 11.0 14.59375q3.5 10.203125 3.5 27.999985l0 20.0q0 8.0 0.6875 12.109375q0.703125 4.09375 3.09375 6.296875q2.40625 2.1875 7.40625 2.1875l1.8125 0l-2.8125 14.40625l-1.390625 0q-8.40625 0 -13.203125 -1.609375q-4.796875 -1.59375 -7.296875 -4.59375q-2.5 -3.0 -4.703125 -8.203125q-12.40625 14.40625 -30.0 14.40625zm3.40625 -14.40625q7.1875 0 13.890625 -3.59375q6.703125 -3.59375 11.109375 -9.59375l0 -23.40625q-21.609375 0.796875 -30.90625 5.703125q-9.296875 4.890625 -9.296875 15.890625q0 7.609375 4.09375 11.3125q4.109375 3.6875 11.109375 3.6875zm97.59375 14.40625q-11.59375 0 -20.296875 -2.703125q-8.703125 -2.703125 -13.296875 -5.890625l2.1875 -17.40625q4.0 3.59375 12.296875 6.796875q8.3125 3.203125 18.3125 3.203125q9.390625 0 14.484375 -3.203125q5.109375 -3.203125 5.109375 -9.0q0 -6.796875 -5.609375 -10.296875q-5.59375 -3.5 -13.984375 -5.90625q-9.203125 -2.390625 -15.5 -5.09375q-6.296875 -2.703125 -10.796875 -8.29686q-4.5 -5.609375 -4.5 -14.796875q0 -12.609375 9.0 -21.0q9.0 -8.40625 27.796875 -8.40625q8.59375 0 14.59375 1.703125q6.0 1.703125 12.0 4.703125l-2.203125 16.390625q-4.796875 -4.0 -10.59375 -6.296875q-5.796875 -2.296875 -13.40625 -2.296875q-8.796875 0 -13.90625 3.296875q-5.09375 3.296875 -5.09375 9.90625q0 4.390625 2.40625 7.09375q2.40625 2.703125 6.796875 4.5q4.40625 1.796875 13.609375 4.59375q11.390625 3.4062347 19.6875 9.60936q8.3125 6.203125 8.3125 19.59375q0 12.0 -8.5 20.609375q-8.5 8.59375 -28.90625 8.59375zm55.003174 -141.99998l18.0 0l0 20.0l-18.0 0l0 -20.0zm0 42.0l18.0 0l0 97.999985l-18.0 0l0 -97.999985zm87.400024 99.999985q-16.0 0 -27.5 -6.59375q-11.5 -6.609375 -17.3125 -18.109375q-5.796875 -11.5 -5.796875 -25.703125q0 -23.187485 13.09375 -37.39061q13.109375 -14.203125 38.90625 -14.203125q15.203125 0 26.8125 5.796875l-2.8125 15.796875q-12.1875 -5.59375 -24.390625 -5.59375q-16.0 0 -24.609375 9.109375q-8.59375 9.09375 -8.59375 25.687485q0 16.609375 8.296875 26.015625q8.296875 9.390625 24.5 9.390625q13.0 0 25.0 -6.0l2.40625 14.390625q-4.40625 3.0 -12.109375 5.203125q-7.6875 2.203125 -15.890625 2.203125z" fill-rule="nonzero"/><path fill="#000000" d="m212.80615 513.7481l-53.609375 0l-13.390625 37.796875l-20.000008 0l50.187508 -140.00003l20.0 0l50.203125 140.00003l-20.0 0l-13.390625 -37.796875zm-6.0 -17.203156l-20.8125 -58.40625l-20.796875 58.40625l41.609375 0zm101.38751 -45.0q40.0 0 40.0 46.0l0 54.00003l-18.0 0l0 -54.00003q0 -15.796875 -5.90625 -22.890625q-5.890625 -7.109375 -19.6875 -7.109375q-8.796875 0 -16.0 3.203125q-7.203125 3.203125 -10.796875 9.59375l0 71.203156l-18.0 0l0 -98.00003l14.0 0l2.0 10.40625q7.796875 -7.0 15.6875 -9.703125q7.90625 -2.703125 16.703125 -2.703125zm91.2063 102.00003q-11.59375 0 -20.296875 -2.703125q-8.703125 -2.703125 -13.296875 -5.890625l2.1875 -17.40625q4.0 3.59375 12.296875 6.796875q8.3125 3.203125 18.3125 3.203125q9.390625 0 14.484375 -3.203125q5.109375 -3.203125 5.109375 -9.0q0 -6.796875 -5.609375 -10.296875q-5.59375 -3.5000305 -13.984375 -5.9062805q-9.203125 -2.390625 -15.5 -5.09375q-6.296875 -2.703125 -10.796875 -8.296875q-4.5 -5.609375 -4.5 -14.796875q0 -12.609375 9.0 -21.0q9.0 -8.40625 27.796875 -8.40625q8.59375 0 14.59375 1.703125q6.0 1.703125 12.0 4.703125l-2.203125 16.390625q-4.796875 -4.0 -10.59375 -6.296875q-5.796875 -2.296875 -13.40625 -2.296875q-8.796875 0 -13.90625 3.296875q-5.09375 3.296875 -5.09375 9.90625q0 4.390625 2.40625 7.09375q2.40625 2.703125 6.796875 4.5q4.40625 1.796875 13.609375 4.59375q11.390625 3.40625 19.6875 9.609375q8.3125 6.203125 8.3125 19.59378q0 12.0 -8.5 20.609375q-8.5 8.59375 -28.90625 8.59375zm45.20627 -100.00003l21.1875 0l18.81247 78.203156l20.796875 -75.203156l18.59375 0l21.0 75.203156l18.796875 -78.203156l21.203125 0l-29.59375 98.00003l-20.203125 0l-20.40625 -72.40628l-20.59375 72.40628l-20.203125 0l-29.390594 -98.00003zm201.7969 100.00003q-16.796875 0 -28.703125 -6.890625q-11.90625 -6.90625 -18.109375 -18.703125q-6.1875 -11.8125 -6.1875 -26.203156q0 -13.796875 5.6875 -25.296875q5.703125 -11.5 16.609375 -18.203125q10.90625 -6.703125 25.703125 -6.703125q18.796875 0 30.5 11.0q11.703125 11.0 11.703125 30.40625q0 5.0 -0.8125 9.59375l-71.0 0q1.8125 19.00003 11.609375 27.00003q9.796875 8.0 25.203125 8.0q15.390625 0 28.1875 -5.796875l2.40625 14.203125q-17.0 7.59375 -32.796875 7.59375zm18.59375 -63.40628q0 -10.59375 -6.0 -16.59375q-6.0 -6.0 -18.0 -6.0q-11.59375 0 -18.203125 5.703125q-6.59375 5.703125 -9.390625 16.890625l51.59375 0zm36.806274 -36.59375l14.796875 0l2.203125 16.203125q7.59375 -9.40625 14.484375 -13.796875q6.90625 -4.40625 14.515625 -4.40625q2.390625 0 4.59375 0.59375l-1.796875 19.8125q-2.59375 -0.609375 -6.0 -0.609375q-7.40625 0 -14.0 3.3125q-6.59375 3.296875 -9.59375 7.6875l0 69.203156l-19.203125 0l0 -98.00003zm90.99689 100.00003q-11.59375 0 -20.296875 -2.703125q-8.703125 -2.703125 -13.296875 -5.890625l2.1875 -17.40625q4.0 3.59375 12.296875 6.796875q8.3125 3.203125 18.3125 3.203125q9.390625 0 14.484375 -3.203125q5.109375 -3.203125 5.109375 -9.0q0 -6.796875 -5.609375 -10.296875q-5.59375 -3.5000305 -13.984375 -5.9062805q-9.203125 -2.390625 -15.5 -5.09375q-6.296875 -2.703125 -10.796875 -8.296875q-4.5 -5.609375 -4.5 -14.796875q0 -12.609375 9.0 -21.0q9.0 -8.40625 27.796875 -8.40625q8.59375 0 14.59375 1.703125q6.0 1.703125 12.0 4.703125l-2.203125 16.390625q-4.796875 -4.0 -10.59375 -6.296875q-5.796875 -2.296875 -13.40625 -2.296875q-8.796875 0 -13.90625 3.296875q-5.09375 3.296875 -5.09375 9.90625q0 4.390625 2.40625 7.09375q2.40625 2.703125 6.796875 4.5q4.40625 1.796875 13.609375 4.59375q11.390625 3.40625 19.6875 9.609375q8.3125 6.203125 8.3125 19.59378q0 12.0 -8.5 20.609375q-8.5 8.59375 -28.90625 8.59375z" fill-rule="nonzero"/><path fill="#000000" fill-opacity="0.0" d="m73.874016 383.70078l0 0c0 -206.60667 181.8288 -374.09448 406.12598 -374.09448l0 0c224.29718 0 406.12598 167.48781 406.12598 374.09448l0 0c0 206.60672 -181.8288 374.0945 -406.12598 374.0945l0 0c-224.29718 0 -406.12598 -167.4878 -406.12598 -374.0945z" fill-rule="evenodd"/><path stroke="#ff95f6" stroke-width="12.0" stroke-linejoin="round" stroke-linecap="butt" d="m73.874016 383.70078l0 0c0 -206.60667 181.8288 -374.09448 406.12598 -374.09448l0 0c224.29718 0 406.12598 167.48781 406.12598 374.09448l0 0c0 206.60672 -181.8288 374.0945 -406.12598 374.0945l0 0c-224.29718 0 -406.12598 -167.4878 -406.12598 -374.0945z" fill-rule="evenodd"/></g></svg>